<svg width="25" height="25" viewBox="0 0 25 25" fill="none" xmlns="http://www.w3.org/2000/svg">
<g clip-path="url(#clip0_9137_3402)">
<path d="M24.4136 8.59375H21.4903L20.6778 6.5625C19.8428 4.47412 17.8502 3.125 15.6007 3.125H9.39948C7.15046 3.125 5.15729 4.47412 4.32184 6.5625L3.50934 8.59375H0.586492C0.205145 8.59375 -0.0746405 8.95215 0.018133 9.32178L0.311102 10.4937C0.376043 10.7544 0.610418 10.9375 0.879461 10.9375H1.85944C1.20368 11.5103 0.781317 12.3428 0.781317 13.2812V15.625C0.781317 16.4121 1.0821 17.1226 1.56257 17.6724V20.3125C1.56257 21.1753 2.26227 21.875 3.12507 21.875H4.68757C5.55036 21.875 6.25007 21.1753 6.25007 20.3125V18.75H18.7501V20.3125C18.7501 21.1753 19.4498 21.875 20.3126 21.875H21.8751C22.7379 21.875 23.4376 21.1753 23.4376 20.3125V17.6724C23.918 17.123 24.2188 16.4126 24.2188 15.625V13.2812C24.2188 12.3428 23.7965 11.5103 23.1412 10.9375H24.1212C24.3902 10.9375 24.6246 10.7544 24.6895 10.4937L24.9825 9.32178C25.0748 8.95215 24.795 8.59375 24.4136 8.59375ZM7.22321 7.72314C7.57917 6.8335 8.44098 6.25 9.39948 6.25H15.6007C16.5591 6.25 17.421 6.8335 17.7769 7.72314L18.7501 10.1562H6.25007L7.22321 7.72314ZM4.68757 15.6152C3.75007 15.6152 3.12507 14.9922 3.12507 14.0576C3.12507 13.123 3.75007 12.5 4.68757 12.5C5.62507 12.5 7.03132 13.9019 7.03132 14.8364C7.03132 15.771 5.62507 15.6152 4.68757 15.6152ZM20.3126 15.6152C19.3751 15.6152 17.9688 15.771 17.9688 14.8364C17.9688 13.9019 19.3751 12.5 20.3126 12.5C21.2501 12.5 21.8751 13.123 21.8751 14.0576C21.8751 14.9922 21.2501 15.6152 20.3126 15.6152Z" fill="#111111" fill-opacity="0.14"/>
</g>
<defs>
<clipPath id="clip0_9137_3402">
<rect width="25" height="25" fill="white"/>
</clipPath>
</defs>
</svg>
