<svg width="48" height="40" viewBox="0 0 48 40" fill="none" xmlns="http://www.w3.org/2000/svg">
<path d="M16.4902 38.1758C15.4909 38.1758 14.7015 37.8454 14.1221 37.1846C13.5426 36.5205 13.2529 35.6188 13.2529 34.4795C13.2529 33.3337 13.541 32.4303 14.1172 31.7695C14.6966 31.1087 15.486 30.7783 16.4854 30.7783C17.2861 30.7783 17.9648 31.0143 18.5215 31.4863C19.0781 31.9551 19.3939 32.5573 19.4688 33.293H18.2285C18.1406 32.8698 17.9388 32.5329 17.623 32.2822C17.3073 32.0283 16.9281 31.9014 16.4854 31.9014C15.8864 31.9014 15.4128 32.1325 15.0645 32.5947C14.7161 33.0537 14.542 33.6803 14.542 34.4746C14.542 35.2689 14.7161 35.8971 15.0645 36.3594C15.4128 36.8216 15.888 37.0527 16.4902 37.0527C16.9362 37.0527 17.3171 36.9372 17.6328 36.7061C17.9486 36.4717 18.1488 36.1576 18.2334 35.7637H19.4736C19.389 36.4863 19.0732 37.069 18.5264 37.5117C17.9795 37.9544 17.3008 38.1758 16.4902 38.1758ZM22.5742 37.1357C22.9388 37.1357 23.2432 37.0316 23.4873 36.8232C23.7314 36.6117 23.8535 36.3512 23.8535 36.042V35.6172L22.6475 35.6953C21.9834 35.7376 21.6514 35.9785 21.6514 36.418C21.6514 36.6393 21.736 36.8151 21.9053 36.9453C22.0778 37.0723 22.3008 37.1357 22.5742 37.1357ZM22.2178 38.0879C21.6969 38.0879 21.2721 37.9414 20.9434 37.6484C20.6146 37.3555 20.4502 36.9681 20.4502 36.4863C20.4502 36.0046 20.6243 35.627 20.9727 35.3535C21.3242 35.0801 21.8255 34.9238 22.4766 34.8848L23.8535 34.8018V34.3525C23.8535 34.0889 23.7673 33.887 23.5947 33.7471C23.4222 33.6071 23.1732 33.5371 22.8477 33.5371C22.5677 33.5371 22.3366 33.5859 22.1543 33.6836C21.972 33.778 21.8532 33.9147 21.7979 34.0938H20.6553C20.7041 33.6217 20.932 33.2474 21.3389 32.9707C21.749 32.6908 22.2715 32.5508 22.9062 32.5508C23.5898 32.5508 24.1172 32.7087 24.4883 33.0244C24.8626 33.3402 25.0498 33.7829 25.0498 34.3525V38H23.8828V37.2676H23.7998C23.6501 37.5247 23.4352 37.7266 23.1553 37.873C22.8786 38.0163 22.5661 38.0879 22.2178 38.0879ZM26.5098 38V32.6582H27.6768V33.4883H27.7598C27.8346 33.2214 28.0023 33.0016 28.2627 32.8291C28.5264 32.6566 28.8291 32.5703 29.1709 32.5703C29.389 32.5703 29.5566 32.5882 29.6738 32.624V33.7471C29.5501 33.7015 29.3434 33.6787 29.0537 33.6787C28.6598 33.6787 28.3392 33.7926 28.0918 34.0205C27.8444 34.2451 27.7207 34.543 27.7207 34.9141V38H26.5098ZM30.4307 34.1865C30.4307 33.7048 30.6292 33.3125 31.0264 33.0098C31.4235 32.7038 31.9378 32.5508 32.5693 32.5508C33.2041 32.5508 33.7103 32.6859 34.0879 32.9561C34.4688 33.223 34.6803 33.599 34.7227 34.084H33.585C33.5394 33.8919 33.4287 33.7422 33.2529 33.6348C33.0804 33.5241 32.8542 33.4688 32.5742 33.4688C32.2943 33.4688 32.0632 33.529 31.8809 33.6494C31.6986 33.7699 31.6074 33.9261 31.6074 34.1182C31.6074 34.2679 31.6709 34.3916 31.7979 34.4893C31.9281 34.5869 32.1283 34.6667 32.3984 34.7285L33.3408 34.9434C33.8551 35.0605 34.2327 35.2347 34.4736 35.4658C34.7145 35.6969 34.835 36.0078 34.835 36.3984C34.835 36.9095 34.6234 37.3229 34.2002 37.6387C33.777 37.9512 33.2301 38.1074 32.5596 38.1074C31.8923 38.1074 31.3584 37.9707 30.958 37.6973C30.5609 37.4238 30.3395 37.0446 30.2939 36.5596H31.4902C31.5488 36.7614 31.6709 36.9176 31.8564 37.0283C32.0452 37.1357 32.2894 37.1895 32.5889 37.1895C32.8949 37.1895 33.1439 37.1292 33.3359 37.0088C33.528 36.8851 33.624 36.724 33.624 36.5254C33.624 36.2292 33.3783 36.0273 32.8867 35.9199L31.9395 35.7002C31.4251 35.583 31.0443 35.4023 30.7969 35.1582C30.5527 34.9108 30.4307 34.5869 30.4307 34.1865Z" fill="#2F80ED"/>
<g clip-path="url(#clip0_9123_1376)">
<path d="M35.4136 8.59375H32.4903L31.6778 6.5625C30.8428 4.47412 28.8502 3.125 26.6007 3.125H20.3995C18.1505 3.125 16.1573 4.47412 15.3218 6.5625L14.5093 8.59375H11.5865C11.2051 8.59375 10.9254 8.95215 11.0181 9.32178L11.3111 10.4937C11.376 10.7544 11.6104 10.9375 11.8795 10.9375H12.8594C12.2037 11.5103 11.7813 12.3428 11.7813 13.2812V15.625C11.7813 16.4121 12.0821 17.1226 12.5626 17.6724V20.3125C12.5626 21.1753 13.2623 21.875 14.1251 21.875H15.6876C16.5504 21.875 17.2501 21.1753 17.2501 20.3125V18.75H29.7501V20.3125C29.7501 21.1753 30.4498 21.875 31.3126 21.875H32.8751C33.7379 21.875 34.4376 21.1753 34.4376 20.3125V17.6724C34.918 17.123 35.2188 16.4126 35.2188 15.625V13.2812C35.2188 12.3428 34.7965 11.5103 34.1412 10.9375H35.1212C35.3902 10.9375 35.6246 10.7544 35.6895 10.4937L35.9825 9.32178C36.0748 8.95215 35.795 8.59375 35.4136 8.59375ZM18.2232 7.72314C18.5792 6.8335 19.441 6.25 20.3995 6.25H26.6007C27.5591 6.25 28.421 6.8335 28.7769 7.72314L29.7501 10.1562H17.2501L18.2232 7.72314ZM15.6876 15.6152C14.7501 15.6152 14.1251 14.9922 14.1251 14.0576C14.1251 13.123 14.7501 12.5 15.6876 12.5C16.6251 12.5 18.0313 13.9019 18.0313 14.8364C18.0313 15.771 16.6251 15.6152 15.6876 15.6152ZM31.3126 15.6152C30.3751 15.6152 28.9688 15.771 28.9688 14.8364C28.9688 13.9019 30.3751 12.5 31.3126 12.5C32.2501 12.5 32.8751 13.123 32.8751 14.0576C32.8751 14.9922 32.2501 15.6152 31.3126 15.6152Z" fill="#2F80ED"/>
</g>
<defs>
<clipPath id="clip0_9123_1376">
<rect width="25" height="25" fill="white" transform="translate(11)"/>
</clipPath>
</defs>
</svg>
