<svg width="68" height="24" viewBox="0 0 68 24" fill="none" xmlns="http://www.w3.org/2000/svg">
<path d="M15.0001 19.88C15.0401 20.18 14.9401 20.5 14.7101 20.71C14.3201 21.1 13.6901 21.1 13.3001 20.71L9.2901 16.7C9.0601 16.47 8.9601 16.16 9.0001 15.87V10.75L4.2101 4.62C3.8701 4.19 3.9501 3.56 4.3801 3.22C4.5701 3.08 4.7801 3 5.0001 3H19.0001C19.2201 3 19.4301 3.08 19.6201 3.22C20.0501 3.56 20.1301 4.19 19.7901 4.62L15.0001 10.75V19.88ZM7.0401 5L11.0001 10.06V15.58L13.0001 17.58V10.05L16.9601 5H7.0401Z" fill="#2F80ED"/>
<path d="M31.1641 18H29.4141V6.72656H36.4531V8.32031H31.1641V11.7812H36.0078V13.3281H31.1641V18ZM38.5625 18V9.49219H40.2344V18H38.5625ZM40.1719 7.71094C39.9688 7.90365 39.7109 8 39.3984 8C39.0859 8 38.8255 7.90365 38.6172 7.71094C38.4141 7.51302 38.3125 7.26823 38.3125 6.97656C38.3125 6.6849 38.4141 6.4401 38.6172 6.24219C38.8255 6.04427 39.0859 5.94531 39.3984 5.94531C39.7109 5.94531 39.9688 6.04427 40.1719 6.24219C40.3802 6.4401 40.4844 6.6849 40.4844 6.97656C40.4844 7.26823 40.3802 7.51302 40.1719 7.71094ZM42.7812 18V6.17188H44.4609V18H42.7812ZM47.5781 7.375H49.2578V9.53125H51.1016V10.9453H49.2578V15.3203C49.2578 15.763 49.3542 16.0885 49.5469 16.2969C49.7396 16.5 50.0443 16.6016 50.4609 16.6016C50.6276 16.6016 50.8411 16.5885 51.1016 16.5625V17.9609C50.7682 18.0182 50.4635 18.0469 50.1875 18.0469C49.2552 18.0469 48.5859 17.8698 48.1797 17.5156C47.7786 17.1615 47.5781 16.5729 47.5781 15.75V10.9453H46.2266V9.53125H47.5781V7.375ZM57.9688 11.3594C57.5938 10.9583 57.0964 10.7578 56.4766 10.7578C55.8568 10.7578 55.3464 10.9583 54.9453 11.3594C54.5443 11.7604 54.3203 12.2943 54.2734 12.9609H58.5703C58.5495 12.2891 58.349 11.7552 57.9688 11.3594ZM58.5625 15.7031H60.1797C59.987 16.4688 59.5651 17.0703 58.9141 17.5078C58.2682 17.9453 57.4609 18.1641 56.4922 18.1641C55.2734 18.1641 54.3125 17.7734 53.6094 16.9922C52.9115 16.2057 52.5625 15.1328 52.5625 13.7734C52.5625 12.4141 52.9167 11.3333 53.625 10.5312C54.3333 9.72917 55.2865 9.32812 56.4844 9.32812C57.6667 9.32812 58.5938 9.70833 59.2656 10.4688C59.9427 11.2292 60.2812 12.2786 60.2812 13.6172V14.2031H54.2734V14.2969C54.2995 15.0469 54.5156 15.6406 54.9219 16.0781C55.3281 16.5156 55.8672 16.7344 56.5391 16.7344C57.5651 16.7344 58.2396 16.3906 58.5625 15.7031ZM62.2969 18V9.49219H63.9141V10.7969H64.0391C64.1589 10.375 64.4323 10.0286 64.8594 9.75781C65.2917 9.48698 65.7839 9.35156 66.3359 9.35156C66.6536 9.35156 66.9036 9.375 67.0859 9.42188V11.0781C66.8828 11.0104 66.5703 10.9766 66.1484 10.9766C65.5078 10.9766 64.9844 11.1615 64.5781 11.5312C64.1771 11.901 63.9766 12.3828 63.9766 12.9766V18H62.2969Z" fill="#2F80ED"/>
</svg>
