<svg width="48" height="40" viewBox="0 0 48 40" fill="none" xmlns="http://www.w3.org/2000/svg">
<path d="M12.5889 38H11.373V30.9541H12.4668L15.9238 35.7441H16.0068V30.9541H17.2178V38H16.1289L12.6719 33.2051H12.5889V38ZM21.0752 33.5127C20.7139 33.5127 20.416 33.6315 20.1816 33.8691C19.9473 34.1068 19.8171 34.4209 19.791 34.8115H22.3057C22.2926 34.4144 22.1755 34.0986 21.9541 33.8643C21.7327 33.6299 21.4398 33.5127 21.0752 33.5127ZM22.3154 36.5303H23.4629C23.349 37.0186 23.0804 37.4043 22.6572 37.6875C22.2373 37.9674 21.7148 38.1074 21.0898 38.1074C20.3053 38.1074 19.6885 37.8633 19.2393 37.375C18.7933 36.8835 18.5703 36.208 18.5703 35.3486C18.5703 34.4893 18.7949 33.8089 19.2441 33.3076C19.6934 32.8031 20.3053 32.5508 21.0801 32.5508C21.8418 32.5508 22.4375 32.79 22.8672 33.2686C23.3001 33.7438 23.5166 34.403 23.5166 35.2461V35.6367H19.7861V35.7002C19.8024 36.1462 19.9294 36.4993 20.167 36.7598C20.4079 37.0169 20.7269 37.1455 21.124 37.1455C21.736 37.1455 22.1331 36.9404 22.3154 36.5303ZM31.8174 32.6582L30.3721 38H29.0977L28.0576 34.1523H27.9746L26.9395 38H25.6797L24.2344 32.6582H25.4551L26.3438 36.6475H26.4268L27.4521 32.6582H28.6094L29.6445 36.6475H29.7275L30.6113 32.6582H31.8174ZM32.6084 34.1865C32.6084 33.7048 32.807 33.3125 33.2041 33.0098C33.6012 32.7038 34.1156 32.5508 34.7471 32.5508C35.3818 32.5508 35.888 32.6859 36.2656 32.9561C36.6465 33.223 36.8581 33.599 36.9004 34.084H35.7627C35.7171 33.8919 35.6064 33.7422 35.4307 33.6348C35.2581 33.5241 35.0319 33.4688 34.752 33.4688C34.472 33.4688 34.2409 33.529 34.0586 33.6494C33.8763 33.7699 33.7852 33.9261 33.7852 34.1182C33.7852 34.2679 33.8486 34.3916 33.9756 34.4893C34.1058 34.5869 34.306 34.6667 34.5762 34.7285L35.5186 34.9434C36.0329 35.0605 36.4105 35.2347 36.6514 35.4658C36.8923 35.6969 37.0127 36.0078 37.0127 36.3984C37.0127 36.9095 36.8011 37.3229 36.3779 37.6387C35.9548 37.9512 35.4079 38.1074 34.7373 38.1074C34.07 38.1074 33.5361 37.9707 33.1357 37.6973C32.7386 37.4238 32.5173 37.0446 32.4717 36.5596H33.668C33.7266 36.7614 33.8486 36.9176 34.0342 37.0283C34.223 37.1357 34.4671 37.1895 34.7666 37.1895C35.0726 37.1895 35.3216 37.1292 35.5137 37.0088C35.7057 36.8851 35.8018 36.724 35.8018 36.5254C35.8018 36.2292 35.556 36.0273 35.0645 35.9199L34.1172 35.7002C33.6029 35.583 33.222 35.4023 32.9746 35.1582C32.7305 34.9108 32.6084 34.5869 32.6084 34.1865Z" fill="#2F80ED"/>
<g clip-path="url(#clip0_9135_3219)">
<path d="M34.9583 4.16699H14.8194C14.2441 4.16699 13.7778 4.63336 13.7778 5.20866V5.55588H12.0417C11.4664 5.55588 11 6.02224 11 6.59755V18.4031C11 19.7455 12.0882 20.8337 13.4306 20.8337H33.9167C35.0673 20.8337 36 19.9009 36 18.7503V5.20866C36 4.63336 35.5336 4.16699 34.9583 4.16699ZM13.4306 18.7503C13.3385 18.7503 13.2501 18.7137 13.185 18.6486C13.1199 18.5835 13.0833 18.4952 13.0833 18.4031V7.63921H13.7778V18.4031C13.7778 18.4952 13.7412 18.5835 13.6761 18.6486C13.611 18.7137 13.5226 18.7503 13.4306 18.7503ZM23.6736 18.0559H17.0764C16.7888 18.0559 16.5556 17.8227 16.5556 17.535V17.1878C16.5556 16.9002 16.7888 16.667 17.0764 16.667H23.6736C23.9612 16.667 24.1944 16.9002 24.1944 17.1878V17.535C24.1944 17.8227 23.9612 18.0559 23.6736 18.0559ZM32.7014 18.0559H26.1042C25.8165 18.0559 25.5833 17.8227 25.5833 17.535V17.1878C25.5833 16.9002 25.8165 16.667 26.1042 16.667H32.7014C32.989 16.667 33.2222 16.9002 33.2222 17.1878V17.535C33.2222 17.8227 32.989 18.0559 32.7014 18.0559ZM23.6736 13.8892H17.0764C16.7888 13.8892 16.5556 13.656 16.5556 13.3684V13.0212C16.5556 12.7335 16.7888 12.5003 17.0764 12.5003H23.6736C23.9612 12.5003 24.1944 12.7335 24.1944 13.0212V13.3684C24.1944 13.656 23.9612 13.8892 23.6736 13.8892ZM32.7014 13.8892H26.1042C25.8165 13.8892 25.5833 13.656 25.5833 13.3684V13.0212C25.5833 12.7335 25.8165 12.5003 26.1042 12.5003H32.7014C32.989 12.5003 33.2222 12.7335 33.2222 13.0212V13.3684C33.2222 13.656 32.989 13.8892 32.7014 13.8892ZM32.7014 9.72255H17.0764C16.7888 9.72255 16.5556 9.48934 16.5556 9.20171V7.4656C16.5556 7.17797 16.7888 6.94477 17.0764 6.94477H32.7014C32.989 6.94477 33.2222 7.17797 33.2222 7.4656V9.20171C33.2222 9.48934 32.989 9.72255 32.7014 9.72255Z" fill="#2F80ED"/>
</g>
<defs>
<clipPath id="clip0_9135_3219">
<rect width="25" height="25" fill="white" transform="translate(11)"/>
</clipPath>
</defs>
</svg>
