<svg width="25" height="25" viewBox="0 0 25 25" fill="none" xmlns="http://www.w3.org/2000/svg">
<g clip-path="url(#clip0_9123_1336)">
<path d="M23.9583 4.1665H3.81944C3.24414 4.1665 2.77778 4.63287 2.77778 5.20817V5.55539H1.04167C0.466363 5.55539 0 6.02176 0 6.59706V18.4026C0 19.745 1.08819 20.8332 2.43056 20.8332H22.9167C24.0673 20.8332 25 19.9004 25 18.7498V5.20817C25 4.63287 24.5336 4.1665 23.9583 4.1665ZM2.43056 18.7498C2.33847 18.7498 2.25015 18.7133 2.18503 18.6481C2.11992 18.583 2.08333 18.4947 2.08333 18.4026V7.63873H2.77778V18.4026C2.77778 18.4947 2.7412 18.583 2.67608 18.6481C2.61096 18.7133 2.52264 18.7498 2.43056 18.7498ZM12.6736 18.0554H6.07639C5.78876 18.0554 5.55556 17.8222 5.55556 17.5346V17.1873C5.55556 16.8997 5.78876 16.6665 6.07639 16.6665H12.6736C12.9612 16.6665 13.1944 16.8997 13.1944 17.1873V17.5346C13.1944 17.8222 12.9612 18.0554 12.6736 18.0554ZM21.7014 18.0554H15.1042C14.8165 18.0554 14.5833 17.8222 14.5833 17.5346V17.1873C14.5833 16.8997 14.8165 16.6665 15.1042 16.6665H21.7014C21.989 16.6665 22.2222 16.8997 22.2222 17.1873V17.5346C22.2222 17.8222 21.989 18.0554 21.7014 18.0554ZM12.6736 13.8887H6.07639C5.78876 13.8887 5.55556 13.6555 5.55556 13.3679V13.0207C5.55556 12.733 5.78876 12.4998 6.07639 12.4998H12.6736C12.9612 12.4998 13.1944 12.733 13.1944 13.0207V13.3679C13.1944 13.6555 12.9612 13.8887 12.6736 13.8887ZM21.7014 13.8887H15.1042C14.8165 13.8887 14.5833 13.6555 14.5833 13.3679V13.0207C14.5833 12.733 14.8165 12.4998 15.1042 12.4998H21.7014C21.989 12.4998 22.2222 12.733 22.2222 13.0207V13.3679C22.2222 13.6555 21.989 13.8887 21.7014 13.8887ZM21.7014 9.72206H6.07639C5.78876 9.72206 5.55556 9.48886 5.55556 9.20123V7.46511C5.55556 7.17748 5.78876 6.94428 6.07639 6.94428H21.7014C21.989 6.94428 22.2222 7.17748 22.2222 7.46511V9.20123C22.2222 9.48886 21.989 9.72206 21.7014 9.72206Z" fill="#111111" fill-opacity="0.14"/>
</g>
<defs>
<clipPath id="clip0_9123_1336">
<rect width="25" height="25" fill="white"/>
</clipPath>
</defs>
</svg>
