<svg width="25" height="24" viewBox="0 0 25 24" fill="none" xmlns="http://www.w3.org/2000/svg">
<path d="M9.25 0C7.55 0 6.25 1.3 6.25 3C6.25 4.7 7.55 6 9.25 6C10.55 6 11.65 5.2 12.05 4H14.25V6H16.25V4H18.25V2H12.05C11.65 0.8 10.55 0 9.25 0ZM9.25 2C9.85 2 10.25 2.4 10.25 3C10.25 3.6 9.85 4 9.25 4C8.65 4 8.25 3.6 8.25 3C8.25 2.4 8.65 2 9.25 2ZM6.75 8C6.05 8 5.55 8.4 5.35 9L3.25 15V23C3.25 23.6 3.65 24 4.25 24H5.25C5.85 24 6.25 23.6 6.25 23V22H18.25V23C18.25 23.6 18.65 24 19.25 24H20.25C20.85 24 21.25 23.6 21.25 23V15L19.15 9C18.95 8.4 18.35 8 17.75 8H6.75ZM6.75 9.5H17.75L19.25 14H5.25L6.75 9.5ZM6.75 16C7.55 16 8.25 16.7 8.25 17.5C8.25 18.3 7.55 19 6.75 19C5.95 19 5.25 18.3 5.25 17.5C5.25 16.7 5.95 16 6.75 16ZM17.75 16C18.55 16 19.25 16.7 19.25 17.5C19.25 18.3 18.55 19 17.75 19C16.95 19 16.25 18.3 16.25 17.5C16.25 16.7 16.95 16 17.75 16Z" fill="#111111" fill-opacity="0.4"/>
</svg>
