<svg width="25" height="24" viewBox="0 0 25 24" fill="none" xmlns="http://www.w3.org/2000/svg">
<path d="M7.25 15H9.25C9.25 16.08 10.62 17 12.25 17C13.88 17 15.25 16.08 15.25 15C15.25 13.9 14.21 13.5 12.01 12.97C9.89 12.44 7.25 11.78 7.25 9C7.25 7.21 8.72 5.69 10.75 5.18V3H13.75V5.18C15.78 5.69 17.25 7.21 17.25 9H15.25C15.25 7.92 13.88 7 12.25 7C10.62 7 9.25 7.92 9.25 9C9.25 10.1 10.29 10.5 12.49 11.03C14.61 11.56 17.25 12.22 17.25 15C17.25 16.79 15.78 18.31 13.75 18.82V21H10.75V18.82C8.72 18.31 7.25 16.79 7.25 15Z" fill="#111111" fill-opacity="0.4"/>
</svg>
