<svg width="25" height="25" viewBox="0 0 25 25" fill="none" xmlns="http://www.w3.org/2000/svg">
<g clip-path="url(#clip0_9123_1344)">
<path d="M20.0038 9.96094L19.6835 10.5195C19.5663 10.7266 19.3163 10.8125 19.0936 10.7305C18.6327 10.5586 18.2108 10.3125 17.8397 10.0039C17.66 9.85547 17.6132 9.59375 17.7303 9.39063L18.0507 8.83204C17.7811 8.51954 17.5702 8.15625 17.4296 7.76172H16.785C16.5507 7.76172 16.3475 7.59375 16.3085 7.35938C16.2303 6.89063 16.2264 6.39844 16.3085 5.91016C16.3475 5.67579 16.5507 5.50391 16.785 5.50391H17.4296C17.5702 5.10938 17.7811 4.7461 18.0507 4.4336L17.7303 3.875C17.6132 3.67188 17.6561 3.41016 17.8397 3.26172C18.2108 2.95313 18.6366 2.70704 19.0936 2.53516C19.3163 2.45313 19.5663 2.53907 19.6835 2.7461L20.0038 3.30469C20.4139 3.23047 20.8319 3.23047 21.2421 3.30469L21.5624 2.7461C21.6796 2.53907 21.9296 2.45313 22.1522 2.53516C22.6132 2.70704 23.035 2.95313 23.4061 3.26172C23.5858 3.41016 23.6327 3.67188 23.5155 3.875L23.1952 4.4336C23.4647 4.7461 23.6757 5.10938 23.8163 5.50391H24.4608C24.6952 5.50391 24.8983 5.67188 24.9374 5.90625C25.0155 6.375 25.0194 6.86719 24.9374 7.35547C24.8983 7.58985 24.6952 7.76172 24.4608 7.76172H23.8163C23.6757 8.15625 23.4647 8.51954 23.1952 8.83204L23.5155 9.39063C23.6327 9.59375 23.5897 9.85547 23.4061 10.0039C23.035 10.3125 22.6093 10.5586 22.1522 10.7305C21.9296 10.8125 21.6796 10.7266 21.5624 10.5195L21.2421 9.96094C20.8358 10.0352 20.4139 10.0352 20.0038 9.96094ZM19.5936 7.66407C21.0975 8.82032 22.8124 7.10547 21.6561 5.60157C20.1522 4.44141 18.4374 6.16016 19.5936 7.66407ZM15.0897 13.6758L16.4061 14.332C16.8007 14.5586 16.9725 15.0391 16.8163 15.4688C16.4686 16.4141 15.785 17.2813 15.1522 18.0391C14.8632 18.3867 14.3632 18.4727 13.9686 18.2461L12.8319 17.5898C12.2069 18.125 11.4803 18.5508 10.6874 18.8281V20.1406C10.6874 20.5938 10.3632 20.9844 9.91785 21.0625C8.95691 21.2266 7.9491 21.2344 6.953 21.0625C6.50378 20.9844 6.17175 20.5977 6.17175 20.1406V18.8281C5.37878 18.5469 4.65222 18.125 4.02722 17.5898L2.8905 18.2422C2.49988 18.4688 1.99597 18.3828 1.70691 18.0352C1.0741 17.2773 0.406128 16.4102 0.0584723 15.4688C-0.0977777 15.043 0.0740972 14.5625 0.468629 14.332L1.76941 13.6758C1.61707 12.8594 1.61707 12.0195 1.76941 11.1992L0.468629 10.5391C0.0740972 10.3125 -0.101684 9.83204 0.0584723 9.40625C0.406128 8.46094 1.0741 7.59375 1.70691 6.83594C1.99597 6.48829 2.49597 6.40235 2.8905 6.62891L4.02722 7.28516C4.65222 6.75 5.37878 6.32422 6.17175 6.04688V4.73047C6.17175 4.28125 6.49207 3.89063 6.93738 3.8125C7.89832 3.64844 8.91004 3.64063 9.90613 3.8086C10.3553 3.88672 10.6874 4.27344 10.6874 4.73047V6.04297C11.4803 6.32422 12.2069 6.7461 12.8319 7.28125L13.9686 6.625C14.3593 6.39844 14.8632 6.48438 15.1522 6.83204C15.785 7.58985 16.4491 8.45704 16.7968 9.40235C16.953 9.82813 16.8007 10.3086 16.4061 10.5391L15.0897 11.1953C15.2421 12.0156 15.2421 12.8555 15.0897 13.6758ZM10.496 14.5C12.8085 11.4922 9.37488 8.0586 6.36707 10.3711C4.05457 13.3789 7.48816 16.8125 10.496 14.5ZM20.0038 21.6367L19.6835 22.1953C19.5663 22.4023 19.3163 22.4883 19.0936 22.4063C18.6327 22.2344 18.2108 21.9883 17.8397 21.6797C17.66 21.5313 17.6132 21.2695 17.7303 21.0664L18.0507 20.5078C17.7811 20.1953 17.5702 19.832 17.4296 19.4375H16.785C16.5507 19.4375 16.3475 19.2695 16.3085 19.0352C16.2303 18.5664 16.2264 18.0742 16.3085 17.5859C16.3475 17.3516 16.5507 17.1797 16.785 17.1797H17.4296C17.5702 16.7852 17.7811 16.4219 18.0507 16.1094L17.7303 15.5508C17.6132 15.3477 17.6561 15.0859 17.8397 14.9375C18.2108 14.6289 18.6366 14.3828 19.0936 14.2109C19.3163 14.1289 19.5663 14.2148 19.6835 14.4219L20.0038 14.9805C20.4139 14.9063 20.8319 14.9063 21.2421 14.9805L21.5624 14.4219C21.6796 14.2148 21.9296 14.1289 22.1522 14.2109C22.6132 14.3828 23.035 14.6289 23.4061 14.9375C23.5858 15.0859 23.6327 15.3477 23.5155 15.5508L23.1952 16.1094C23.4647 16.4219 23.6757 16.7852 23.8163 17.1797H24.4608C24.6952 17.1797 24.8983 17.3477 24.9374 17.582C25.0155 18.0508 25.0194 18.543 24.9374 19.0313C24.8983 19.2656 24.6952 19.4375 24.4608 19.4375H23.8163C23.6757 19.832 23.4647 20.1953 23.1952 20.5078L23.5155 21.0664C23.6327 21.2695 23.5897 21.5313 23.4061 21.6797C23.035 21.9883 22.6093 22.2344 22.1522 22.4063C21.9296 22.4883 21.6796 22.4023 21.5624 22.1953L21.2421 21.6367C20.8358 21.7109 20.4139 21.7109 20.0038 21.6367ZM19.5936 19.3359C21.0975 20.4922 22.8124 18.7773 21.6561 17.2734C20.1522 16.1172 18.4374 17.832 19.5936 19.3359Z" fill="#111111" fill-opacity="0.14"/>
</g>
<defs>
<clipPath id="clip0_9123_1344">
<rect width="25" height="25" fill="white"/>
</clipPath>
</defs>
</svg>
