<svg width="48" height="41" viewBox="0 0 48 41" fill="none" xmlns="http://www.w3.org/2000/svg">
<path d="M3.49512 36.0859H4.72559C4.76465 36.4017 4.92904 36.654 5.21875 36.8428C5.50846 37.0283 5.8763 37.1211 6.32227 37.1211C6.73893 37.1211 7.08073 37.0267 7.34766 36.8379C7.61784 36.6458 7.75293 36.4017 7.75293 36.1055C7.75293 35.8516 7.65039 35.6449 7.44531 35.4854C7.24349 35.3258 6.91634 35.194 6.46387 35.0898L5.55078 34.8799C4.91276 34.7367 4.43913 34.5039 4.12988 34.1816C3.82389 33.8561 3.6709 33.4313 3.6709 32.9072C3.6709 32.266 3.91016 31.7516 4.38867 31.3643C4.87044 30.9736 5.50521 30.7783 6.29297 30.7783C7.0319 30.7783 7.64388 30.9704 8.12891 31.3545C8.61393 31.7386 8.87109 32.2334 8.90039 32.8389H7.69434C7.65202 32.5296 7.50391 32.2839 7.25 32.1016C6.99609 31.9193 6.67546 31.8281 6.28809 31.8281C5.88118 31.8281 5.55404 31.9193 5.30664 32.1016C5.0625 32.2806 4.94043 32.5199 4.94043 32.8193C4.94043 33.057 5.03646 33.2507 5.22852 33.4004C5.42057 33.5469 5.7347 33.6706 6.1709 33.7715L6.98145 33.957C7.69434 34.1165 8.21029 34.3542 8.5293 34.6699C8.85156 34.9857 9.0127 35.4121 9.0127 35.9492C9.0127 36.6361 8.76367 37.1797 8.26562 37.5801C7.77083 37.9772 7.09701 38.1758 6.24414 38.1758C5.43685 38.1758 4.78418 37.987 4.28613 37.6094C3.79134 37.2318 3.52767 36.724 3.49512 36.0859ZM12.543 33.5127C12.1816 33.5127 11.8838 33.6315 11.6494 33.8691C11.415 34.1068 11.2848 34.4209 11.2588 34.8115H13.7734C13.7604 34.4144 13.6432 34.0986 13.4219 33.8643C13.2005 33.6299 12.9076 33.5127 12.543 33.5127ZM13.7832 36.5303H14.9307C14.8167 37.0186 14.5482 37.4043 14.125 37.6875C13.7051 37.9674 13.1826 38.1074 12.5576 38.1074C11.7731 38.1074 11.1562 37.8633 10.707 37.375C10.2611 36.8835 10.0381 36.208 10.0381 35.3486C10.0381 34.4893 10.2627 33.8089 10.7119 33.3076C11.1611 32.8031 11.7731 32.5508 12.5479 32.5508C13.3096 32.5508 13.9053 32.79 14.335 33.2686C14.7679 33.7438 14.9844 34.403 14.9844 35.2461V35.6367H11.2539V35.7002C11.2702 36.1462 11.3971 36.4993 11.6348 36.7598C11.8757 37.0169 12.1947 37.1455 12.5918 37.1455C13.2038 37.1455 13.6009 36.9404 13.7832 36.5303ZM16.5859 31.3496H17.792V32.6924H18.9346V33.6592H17.792V36.2812C17.792 36.5449 17.8506 36.7386 17.9678 36.8623C18.085 36.9827 18.2705 37.043 18.5244 37.043C18.6351 37.043 18.7718 37.0348 18.9346 37.0186V37.9658C18.7327 38.0049 18.5212 38.0244 18.2998 38.0244C17.6878 38.0244 17.2484 37.9121 16.9814 37.6875C16.7178 37.4629 16.5859 37.0918 16.5859 36.5742V33.6592H15.7412V32.6924H16.5859V31.3496ZM20.5605 31.3496H21.7666V32.6924H22.9092V33.6592H21.7666V36.2812C21.7666 36.5449 21.8252 36.7386 21.9424 36.8623C22.0596 36.9827 22.2451 37.043 22.499 37.043C22.6097 37.043 22.7464 37.0348 22.9092 37.0186V37.9658C22.7074 38.0049 22.4958 38.0244 22.2744 38.0244C21.6624 38.0244 21.223 37.9121 20.9561 37.6875C20.6924 37.4629 20.5605 37.0918 20.5605 36.5742V33.6592H19.7158V32.6924H20.5605V31.3496ZM24.1348 38V32.6582H25.3408V38H24.1348ZM24.7354 31.7891C24.5173 31.7891 24.3382 31.7272 24.1982 31.6035C24.0583 31.4766 23.9883 31.3154 23.9883 31.1201C23.9883 30.9248 24.0583 30.7653 24.1982 30.6416C24.3382 30.5146 24.5173 30.4512 24.7354 30.4512C24.9567 30.4512 25.1357 30.5146 25.2725 30.6416C25.4124 30.7653 25.4824 30.9248 25.4824 31.1201C25.4824 31.3154 25.4124 31.4766 25.2725 31.6035C25.1357 31.7272 24.9567 31.7891 24.7354 31.7891ZM26.8447 38V32.6582H28.0117V33.5127H28.0947C28.2249 33.2067 28.4235 32.9707 28.6904 32.8047C28.9606 32.6354 29.291 32.5508 29.6816 32.5508C30.2741 32.5508 30.7282 32.7233 31.0439 33.0684C31.363 33.4134 31.5225 33.9049 31.5225 34.543V38H30.3115V34.8311C30.3115 34.014 29.9518 33.6055 29.2324 33.6055C28.8711 33.6055 28.5846 33.721 28.373 33.9521C28.1615 34.1833 28.0557 34.4958 28.0557 34.8896V38H26.8447ZM34.2764 36.4912C34.5075 36.7874 34.833 36.9355 35.2529 36.9355C35.6729 36.9355 36.0033 36.7858 36.2441 36.4863C36.485 36.1868 36.6055 35.7816 36.6055 35.2705C36.6055 34.7594 36.485 34.3542 36.2441 34.0547C36.0033 33.752 35.6729 33.6006 35.2529 33.6006C34.8363 33.6006 34.5107 33.7503 34.2764 34.0498C34.0452 34.3493 33.9297 34.7562 33.9297 35.2705C33.9297 35.7848 34.0452 36.1917 34.2764 36.4912ZM35.2529 40.0312C34.5726 40.0312 34.0192 39.8929 33.5928 39.6162C33.1696 39.3395 32.9336 38.9701 32.8848 38.5078H34.1006C34.1396 38.6934 34.2617 38.8398 34.4668 38.9473C34.6751 39.0547 34.9437 39.1084 35.2725 39.1084C35.6859 39.1084 36.0081 39.0156 36.2393 38.8301C36.4704 38.6445 36.5859 38.3841 36.5859 38.0488V37.0381H36.5029C36.3499 37.3245 36.1318 37.5443 35.8486 37.6973C35.5687 37.847 35.2432 37.9219 34.8721 37.9219C34.2015 37.9219 33.6693 37.6826 33.2754 37.2041C32.8815 36.7223 32.6846 36.0778 32.6846 35.2705C32.6846 34.4502 32.8831 33.7959 33.2803 33.3076C33.6774 32.8161 34.2145 32.5703 34.8916 32.5703C35.2562 32.5703 35.5866 32.6549 35.8828 32.8242C36.179 32.9935 36.4004 33.223 36.5469 33.5127H36.6299V32.6582H37.7969V38.0195C37.7969 38.638 37.5674 39.1279 37.1084 39.4893C36.6494 39.8506 36.0309 40.0312 35.2529 40.0312ZM39.1641 34.1865C39.1641 33.7048 39.3626 33.3125 39.7598 33.0098C40.1569 32.7038 40.6712 32.5508 41.3027 32.5508C41.9375 32.5508 42.4437 32.6859 42.8213 32.9561C43.2021 33.223 43.4137 33.599 43.4561 34.084H42.3184C42.2728 33.8919 42.1621 33.7422 41.9863 33.6348C41.8138 33.5241 41.5876 33.4688 41.3076 33.4688C41.0277 33.4688 40.7965 33.529 40.6143 33.6494C40.432 33.7699 40.3408 33.9261 40.3408 34.1182C40.3408 34.2679 40.4043 34.3916 40.5312 34.4893C40.6615 34.5869 40.8617 34.6667 41.1318 34.7285L42.0742 34.9434C42.5885 35.0605 42.9661 35.2347 43.207 35.4658C43.4479 35.6969 43.5684 36.0078 43.5684 36.3984C43.5684 36.9095 43.3568 37.3229 42.9336 37.6387C42.5104 37.9512 41.9635 38.1074 41.293 38.1074C40.6257 38.1074 40.0918 37.9707 39.6914 37.6973C39.2943 37.4238 39.0729 37.0446 39.0273 36.5596H40.2236C40.2822 36.7614 40.4043 36.9176 40.5898 37.0283C40.7786 37.1357 41.0228 37.1895 41.3223 37.1895C41.6283 37.1895 41.8773 37.1292 42.0693 37.0088C42.2614 36.8851 42.3574 36.724 42.3574 36.5254C42.3574 36.2292 42.1117 36.0273 41.6201 35.9199L40.6729 35.7002C40.1585 35.583 39.7777 35.4023 39.5303 35.1582C39.2861 34.9108 39.1641 34.5869 39.1641 34.1865Z" fill="#111111" fill-opacity="0.14"/>
<g clip-path="url(#clip0_9123_1384)">
<path d="M31.0038 9.96094L30.6835 10.5195C30.5663 10.7266 30.3163 10.8125 30.0936 10.7305C29.6327 10.5586 29.2108 10.3125 28.8397 10.0039C28.66 9.85547 28.6132 9.59375 28.7303 9.39063L29.0507 8.83204C28.7811 8.51954 28.5702 8.15625 28.4296 7.76172H27.785C27.5507 7.76172 27.3475 7.59375 27.3085 7.35938C27.2303 6.89063 27.2264 6.39844 27.3085 5.91016C27.3475 5.67579 27.5507 5.50391 27.785 5.50391H28.4296C28.5702 5.10938 28.7811 4.7461 29.0507 4.4336L28.7303 3.875C28.6132 3.67188 28.6561 3.41016 28.8397 3.26172C29.2108 2.95313 29.6366 2.70704 30.0936 2.53516C30.3163 2.45313 30.5663 2.53907 30.6835 2.7461L31.0038 3.30469C31.4139 3.23047 31.8319 3.23047 32.2421 3.30469L32.5624 2.7461C32.6796 2.53907 32.9296 2.45313 33.1522 2.53516C33.6132 2.70704 34.035 2.95313 34.4061 3.26172C34.5858 3.41016 34.6327 3.67188 34.5155 3.875L34.1952 4.4336C34.4647 4.7461 34.6757 5.10938 34.8163 5.50391H35.4608C35.6952 5.50391 35.8983 5.67188 35.9374 5.90625C36.0155 6.375 36.0194 6.86719 35.9374 7.35547C35.8983 7.58985 35.6952 7.76172 35.4608 7.76172H34.8163C34.6757 8.15625 34.4647 8.51954 34.1952 8.83204L34.5155 9.39063C34.6327 9.59375 34.5897 9.85547 34.4061 10.0039C34.035 10.3125 33.6093 10.5586 33.1522 10.7305C32.9296 10.8125 32.6796 10.7266 32.5624 10.5195L32.2421 9.96094C31.8358 10.0352 31.4139 10.0352 31.0038 9.96094ZM30.5936 7.66407C32.0975 8.82032 33.8124 7.10547 32.6561 5.60157C31.1522 4.44141 29.4374 6.16016 30.5936 7.66407ZM26.0897 13.6758L27.4061 14.332C27.8007 14.5586 27.9725 15.0391 27.8163 15.4688C27.4686 16.4141 26.785 17.2813 26.1522 18.0391C25.8632 18.3867 25.3632 18.4727 24.9686 18.2461L23.8319 17.5898C23.2069 18.125 22.4803 18.5508 21.6874 18.8281V20.1406C21.6874 20.5938 21.3632 20.9844 20.9178 21.0625C19.9569 21.2266 18.9491 21.2344 17.953 21.0625C17.5038 20.9844 17.1718 20.5977 17.1718 20.1406V18.8281C16.3788 18.5469 15.6522 18.125 15.0272 17.5898L13.8905 18.2422C13.4999 18.4688 12.996 18.3828 12.7069 18.0352C12.0741 17.2773 11.4061 16.4102 11.0585 15.4688C10.9022 15.043 11.0741 14.5625 11.4686 14.332L12.7694 13.6758C12.6171 12.8594 12.6171 12.0195 12.7694 11.1992L11.4686 10.5391C11.0741 10.3125 10.8983 9.83204 11.0585 9.40625C11.4061 8.46094 12.0741 7.59375 12.7069 6.83594C12.996 6.48829 13.496 6.40235 13.8905 6.62891L15.0272 7.28516C15.6522 6.75 16.3788 6.32422 17.1718 6.04688V4.73047C17.1718 4.28125 17.4921 3.89063 17.9374 3.8125C18.8983 3.64844 19.91 3.64063 20.9061 3.8086C21.3553 3.88672 21.6874 4.27344 21.6874 4.73047V6.04297C22.4803 6.32422 23.2069 6.7461 23.8319 7.28125L24.9686 6.625C25.3593 6.39844 25.8632 6.48438 26.1522 6.83204C26.785 7.58985 27.4491 8.45704 27.7968 9.40235C27.953 9.82813 27.8007 10.3086 27.4061 10.5391L26.0897 11.1953C26.2421 12.0156 26.2421 12.8555 26.0897 13.6758ZM21.496 14.5C23.8085 11.4922 20.3749 8.0586 17.3671 10.3711C15.0546 13.3789 18.4882 16.8125 21.496 14.5ZM31.0038 21.6367L30.6835 22.1953C30.5663 22.4023 30.3163 22.4883 30.0936 22.4063C29.6327 22.2344 29.2108 21.9883 28.8397 21.6797C28.66 21.5313 28.6132 21.2695 28.7303 21.0664L29.0507 20.5078C28.7811 20.1953 28.5702 19.832 28.4296 19.4375H27.785C27.5507 19.4375 27.3475 19.2695 27.3085 19.0352C27.2303 18.5664 27.2264 18.0742 27.3085 17.5859C27.3475 17.3516 27.5507 17.1797 27.785 17.1797H28.4296C28.5702 16.7852 28.7811 16.4219 29.0507 16.1094L28.7303 15.5508C28.6132 15.3477 28.6561 15.0859 28.8397 14.9375C29.2108 14.6289 29.6366 14.3828 30.0936 14.2109C30.3163 14.1289 30.5663 14.2148 30.6835 14.4219L31.0038 14.9805C31.4139 14.9063 31.8319 14.9063 32.2421 14.9805L32.5624 14.4219C32.6796 14.2148 32.9296 14.1289 33.1522 14.2109C33.6132 14.3828 34.035 14.6289 34.4061 14.9375C34.5858 15.0859 34.6327 15.3477 34.5155 15.5508L34.1952 16.1094C34.4647 16.4219 34.6757 16.7852 34.8163 17.1797H35.4608C35.6952 17.1797 35.8983 17.3477 35.9374 17.582C36.0155 18.0508 36.0194 18.543 35.9374 19.0313C35.8983 19.2656 35.6952 19.4375 35.4608 19.4375H34.8163C34.6757 19.832 34.4647 20.1953 34.1952 20.5078L34.5155 21.0664C34.6327 21.2695 34.5897 21.5313 34.4061 21.6797C34.035 21.9883 33.6093 22.2344 33.1522 22.4063C32.9296 22.4883 32.6796 22.4023 32.5624 22.1953L32.2421 21.6367C31.8358 21.7109 31.4139 21.7109 31.0038 21.6367ZM30.5936 19.3359C32.0975 20.4922 33.8124 18.7773 32.6561 17.2734C31.1522 16.1172 29.4374 17.832 30.5936 19.3359Z" fill="#111111" fill-opacity="0.14"/>
</g>
<defs>
<clipPath id="clip0_9123_1384">
<rect width="25" height="25" fill="white" transform="translate(11)"/>
</clipPath>
</defs>
</svg>
